<svg xmlns="http://www.w3.org/2000/svg" viewBox="0 0 64 64" role="img" aria-label="TriplexD mark">
  <g transform="translate(-1,1)">
    <g fill="#1F7A6E">
      <circle cx="8" cy="20" r="2.8"/><circle cx="7" cy="34" r="2.8"/>
      <circle cx="10" cy="47" r="2.8"/><circle cx="19" cy="14" r="2.8"/>
      <circle cx="20" cy="40" r="2.8"/>
    </g>
    <g fill="none" stroke="#1F7A6E" stroke-width="1.5" opacity=".45">
      <path d="M8 20 C 24 24, 30 30, 39 32"/>
      <path d="M7 34 C 22 34, 30 33, 39 32"/>
      <path d="M10 47 C 26 44, 32 36, 39 32"/>
      <path d="M19 14 C 30 20, 34 28, 39 32"/>
      <path d="M20 40 C 30 38, 34 34, 39 32"/>
    </g>
    <line x1="39" y1="14" x2="39" y2="50" stroke="#10292C" stroke-width="1.5"/>
    <line x1="39" y1="32" x2="55" y2="32" stroke="#D4901E" stroke-width="3.2" stroke-linecap="round"/>
    <circle cx="59" cy="32" r="4.8" fill="none" stroke="#D4901E" stroke-width="3.2"/>
    <circle cx="59" cy="32" r="1.8" fill="#D4901E"/>
  </g>
</svg>
